<svg xmlns="http://www.w3.org/2000/svg" width="25.26" height="25.26"><path data-name="Path 18" d="M0 0h25.26v25.26H0Z" fill="none"/><path data-name="Path 19" d="M20.144 13.615a8.244 8.244 0 0 0 .063-.985 6.229 6.229 0 0 0-.076-.985l2.134-1.667a.522.522 0 0 0 .126-.644l-2.021-3.5a.514.514 0 0 0-.619-.227l-2.513 1.01a7.4 7.4 0 0 0-1.705-.985l-.379-2.678a.5.5 0 0 0-.504-.428h-4.041a.492.492 0 0 0-.493.429l-.379 2.678a7.6 7.6 0 0 0-1.705.985l-2.513-1.01a.5.5 0 0 0-.619.227L2.884 9.333a.489.489 0 0 0 .126.644l2.134 1.667a5.952 5.952 0 0 0-.013 1.97l-2.138 1.668a.522.522 0 0 0-.126.644l2.017 3.5a.514.514 0 0 0 .619.227l2.513-1.01a7.4 7.4 0 0 0 1.708.983l.379 2.678a.514.514 0 0 0 .505.429h4.042a.483.483 0 0 0 .493-.429l.379-2.678a7.6 7.6 0 0 0 1.705-.985l2.513 1.01a.5.5 0 0 0 .619-.227l2.025-3.498a.489.489 0 0 0-.126-.644l-2.114-1.667Zm-7.515 2.8a3.789 3.789 0 1 1 3.789-3.789 3.8 3.8 0 0 1-3.789 3.793Z"/></svg>